<svg id="Layer_1" data-name="Layer 1" xmlns="http://www.w3.org/2000/svg" viewBox="0 0 579.78 210.83"><rect x="553.43" y="184.47" width="26.35" height="26.36" rx="5.02"/><rect x="158.12" y="184.47" width="79.06" height="26.36" rx="5.02"/><path d="M448,84.08v69a5,5,0,0,1-5,5H374a5,5,0,0,1-5-5V136.79a5,5,0,0,1,5-5h42.67a5,5,0,0,0,5-5V110.43a5,5,0,0,0-5-5H374a5,5,0,0,1-5-5V84.08a5,5,0,0,1,5-5h69A5,5,0,0,1,448,84.08Z"/><path d="M579.78,84.08v69a5,5,0,0,1-5,5h-69a5,5,0,0,0-5,5v42.67a5,5,0,0,1-5,5H453a5,5,0,0,1-5-5V189.49a5,5,0,0,1,5-5h16.32a5,5,0,0,0,5-5V84.08a5,5,0,0,1,5-5H495.7a5,5,0,0,1,5,5v42.67a5,5,0,0,0,5,5h42.67a5,5,0,0,0,5-5V84.08a5,5,0,0,1,5-5h16.31A5,5,0,0,1,579.78,84.08Z"/><path d="M263.54,84.08v16.31a5,5,0,0,0,5,5h42.67a5,5,0,0,1,5,5v16.32a5,5,0,0,1-5,5h-69a5,5,0,0,1-5-5V84.08a5,5,0,0,0-5-5H215.85a5,5,0,0,0-5,5v42.67a5,5,0,0,1-5,5H163.14a5,5,0,0,1-5-5V84.08a5,5,0,0,0-5-5h-69a5,5,0,0,0-5,5v42.67a5,5,0,0,1-5,5H57.73a5,5,0,0,1-5-5V84.08a5,5,0,0,0-5-5H31.38a5,5,0,0,0-5,5v95.37a5,5,0,0,1-5,5H5a5,5,0,0,0-5,5v16.32a5,5,0,0,0,5,5H47.69a5,5,0,0,0,5-5V163.14a5,5,0,0,1,5-5H337.58a5,5,0,0,0,5-5v-69a5,5,0,0,0-5-5h-69A5,5,0,0,0,263.54,84.08ZM126.75,131.77H110.44a5,5,0,0,1-5-5V110.43a5,5,0,0,1,5-5h16.31a5,5,0,0,1,5,5v16.32A5,5,0,0,1,126.75,131.77Z"/><rect x="26.36" y="26.35" width="26.35" height="26.36" rx="5.02"/><path d="M369,5V47.69a5,5,0,0,1-5,5H268.56a5,5,0,0,1-5-5V31.37a5,5,0,0,1,5-5h42.67a5,5,0,0,0,5-5V5a5,5,0,0,1,5-5h42.66A5,5,0,0,1,369,5Z"/></svg>